<svg width="147" height="141" viewBox="0 0 147 141" fill="none" xmlns="http://www.w3.org/2000/svg"><path d="M132.002 38.406c0 12.088-15.85 17.907-28 17.907s-16-5.82-16-17.907 15.35-22.383 27.5-22.383 16.5 10.296 16.5 22.383z" fill="#43D48A"/><path d="M24.433 42.97C41.684 22.305 56.494 4.093 80.448 17.85c12.597 7.235 36.734 28.801 43.124 50.249 9.796 17.092-4.569 35.048-10.957 46.056-13.475 23.218-41.813 11.583-65.766-2.175-23.954-13.758-35.89-45.79-22.416-69.01z" fill="#F5F5F5"/><path d="M51.5 106a476.887 476.887 0 0116-.604M84 106c-2.423-.66-9.303-.745-16.5-.604M43 62.5c6.44-2.1 15.708-5.205 24.5-8.309M92.5 44c-1.624 1.624-12.858 5.906-25 10.191m0 0c1 15.7 2.4 47.922 0 51.205M82.06 75.5c-.8-2.4 6.666-18 10.5-25.5 1.833 2.333 6.6 10.7 11 25.5-10.5 18-20.5 3-21.5 0zM102.56 72.5L82.06 74M35.044 86.38C34.45 84.558 39.992 72.7 42.837 67c1.36 1.773 4.898 8.132 8.163 19.38-7.792 13.681-15.214 2.28-15.956 0zM50 84l-15 1" stroke="#3D3935" stroke-width="2" stroke-linecap="round" stroke-linejoin="round"/><path d="M132.002 38.406c0 12.088-15.85 17.907-28 17.907s-16-5.82-16-17.907 15.35-22.383 27.5-22.383 16.5 10.296 16.5 22.383z" fill="#EF533F"/><path d="M102.055 36.392c1.5 1.99 4.7 5.87 5.5 5.472 1-.498 6.5-8.456 9.5-10.446" stroke="#fff" stroke-width="2" stroke-linecap="round" stroke-linejoin="round"/></svg>