<svg width="149" height="151" viewBox="0 0 149 151" fill="none" xmlns="http://www.w3.org/2000/svg"><path d="M133.002 43.406c0 12.088-15.85 17.907-28 17.907s-16-5.82-16-17.907 15.35-22.383 27.5-22.383 16.5 10.296 16.5 22.383z" fill="#43D48A"/><path d="M112.746 34.52c15.968 21.673 30.132 40.392 11.069 60.383-10.025 10.514-36.716 28.826-59.068 29.928-18.932 5.446-32.953-12.779-42.125-21.603-19.345-18.614-1.3-43.368 17.763-63.36 19.063-19.99 53.016-23.962 72.361-5.348z" fill="#F5F5F5"/><path d="M70.197 45c-11.375.62-33.937 8.361-33.178 34.373.948 32.515 51.663 38.554 54.981 20.903-15.641-9.29-24.974-20.918-24.5-22.776.38-1.486 1.433-16.452 2.697-26.825" stroke="#3D3935" stroke-width="2" stroke-linecap="round" stroke-linejoin="round"/><path d="M76.35 71.291l.894-24.986c17.023 2.827 22.963 17.485 23.806 24.461l-24.7.525zM104.694 76.717l-26.953-.373c4.232 5.259 14.051 16.626 19.475 20.024 6.369-7.496 7.639-16.224 7.478-19.65z" stroke="#3D3935" stroke-width="2" stroke-linejoin="round"/><path d="M133.002 43.406c0 12.088-15.85 17.907-28 17.907s-16-5.82-16-17.907 15.35-22.383 27.5-22.383 16.5 10.296 16.5 22.383z" fill="#EF533F"/><path d="M103.055 41.392c1.5 1.99 4.7 5.87 5.5 5.472 1-.498 6.5-8.456 9.5-10.446" stroke="#fff" stroke-width="2" stroke-linecap="round" stroke-linejoin="round"/></svg>