<svg width="122" height="109" viewBox="0 0 122 109" fill="none" xmlns="http://www.w3.org/2000/svg"><path d="M120.002 22.406c0 12.088-15.85 17.907-28 17.907s-16-5.82-16-17.907S91.352.022 103.502.022s16.5 10.297 16.5 22.384z" fill="#43D48A"/><path d="M113.712 63.348c-8.608 23.195-15.846 43.515-41.562 38.936-13.524-2.408-41.935-13.695-54.559-30.32-14.233-11.808-7.308-31.769-5.208-43.265C16.813 4.45 45.732 5.846 71.448 10.425c25.716 4.578 46.694 28.675 42.264 52.923z" fill="#F5F5F5"/><path d="M40.096 37.91c-3.844-.81-11.654-.972-12.14 4.856-.607 7.284-1.821 40.063 0 40.67 1.821.607-3.035 3.642 12.14 3.035 12.141-.485 33.792-.202 43.1 0 1.416 0 4.37-1.335 4.856-6.677M35.24 43.373c2.295 0 4.982.006 7.892.02m44.92 8.478c0-1.214 0-6.07-4.857-7.285-1.194-.298-4.83-.528-9.712-.703m-30.351-.49c1.82-4.256 6.313-12.89 9.712-13.375 3.4-.486 15.176 9.041 20.639 13.865m-30.351-.49c9.704.048 21.895.187 30.351.49M72.876 37.91c2.63-.608 7.77-.365 7.284 5.463" stroke="#3D3935" stroke-width="2" stroke-linecap="round"/><path d="M64.985 65.832c-1.943-4.856 4.451-8.498 7.891-9.712 6.273.405 19.182 1.336 20.64 1.821 1.82.607 2.427 12.14 0 14.569-2.429 2.428-17.605.607-21.854 0-4.25-.607-4.25-.607-6.677-6.677h0z" stroke="#3D3935" stroke-width="2" stroke-linecap="round"/><path d="M73.9 67.653c-1.243-.314-3.61-1.542-3.139-3.942.589-3 3.776-3.342 4.168-3.342.392 0 4.413.386 4.266 4.028" stroke="#3D3935" stroke-width="2" stroke-linecap="round" stroke-linejoin="round"/><path d="M120.002 22.406c0 12.088-15.85 17.907-28 17.907s-16-5.82-16-17.907S91.352.022 103.502.022s16.5 10.297 16.5 22.384z" fill="#EF533F"/><path d="M90.055 20.392c1.5 1.99 4.7 5.87 5.5 5.472 1-.498 6.5-8.456 9.5-10.446" stroke="#fff" stroke-width="2" stroke-linecap="round" stroke-linejoin="round"/></svg>