<svg width="147" height="142" viewBox="0 0 147 142" fill="none" xmlns="http://www.w3.org/2000/svg"><path d="M132.002 38.637c0 12.087-15.85 17.907-28 17.907s-16-5.82-16-17.907c0-12.088 15.35-22.384 27.5-22.384s16.5 10.296 16.5 22.384z" fill="#43D48A"/><path d="M24.433 43.201c17.251-20.667 32.061-38.879 56.015-25.12 12.597 7.235 36.734 28.8 43.124 50.248 9.796 17.092-4.569 35.048-10.957 46.056-13.475 23.219-41.813 11.584-65.766-2.174-23.954-13.759-35.89-45.791-22.416-69.01z" fill="#F5F5F5"/><path d="M89.892 50.24c.207-2.343 3.446-2.78 4.267-.576 1.014 2.724 4.417 3.624 6.645 1.758 1.803-1.511 4.403.47 3.424 2.61-1.209 2.642.562 5.685 3.456 5.94 2.343.207 2.781 3.447.576 4.268-2.723 1.013-3.623 4.417-1.757 6.644 1.511 1.803-.471 4.403-2.61 3.425-2.642-1.21-5.686.561-5.941 3.456-.207 2.343-3.447 2.78-4.267.576-1.014-2.723-4.417-3.624-6.645-1.757-1.803 1.51-4.403-.471-3.424-2.61 1.209-2.643-.562-5.686-3.456-5.941-2.343-.207-2.78-3.447-.576-4.267 2.723-1.014 3.623-4.418 1.757-6.645-1.51-1.803.47-4.403 2.61-3.425 2.642 1.21 5.686-.561 5.941-3.456zM50.105 54.023c.938-4.154 6.856-4.154 7.794 0 .913 4.04 5.548 5.96 9.05 3.749 3.6-2.274 7.785 1.91 5.512 5.511-2.211 3.502-.291 8.138 3.748 9.05 4.154.938 4.154 6.857 0 7.795-4.04.912-5.96 5.548-3.748 9.05 2.273 3.6-1.912 7.785-5.512 5.511-3.502-2.21-8.137-.29-9.05 3.749-.938 4.153-6.856 4.153-7.794 0-.913-4.04-5.548-5.96-9.05-3.749-3.6 2.274-7.785-1.911-5.512-5.511 2.211-3.502.291-8.138-3.748-9.05-4.154-.938-4.154-6.857 0-7.795 4.04-.912 5.96-5.548 3.748-9.05-2.273-3.6 1.911-7.785 5.512-5.511 3.502 2.21 8.137.29 9.05-3.749z" stroke="#3D3935" stroke-width="2"/><path d="M46.924 72.337c1.768-2.224 6.559-6.006 11.575-3.337 6.27 3.337 6.752 10.011 4.823 13.349-1.93 3.337-9.646 6.197-13.987 2.383-3.472-3.051-3.697-7.627-3.376-9.534M92.104 58.74c-3.142.534-3.974 3.84-3.997 5.425l.551 1.592c.51.951 2.178 2.894 4.766 3.055 3.234.202 5.68-3.696 5.394-5.828-.287-2.131-2.787-4.912-6.714-4.244z" stroke="#3D3935" stroke-width="2" stroke-linecap="round" stroke-linejoin="round"/><path d="M132.002 38.637c0 12.087-15.85 17.907-28 17.907s-16-5.82-16-17.907c0-12.088 15.35-22.384 27.5-22.384s16.5 10.296 16.5 22.384z" fill="#EF533F"/><path d="M102.055 36.392c1.5 1.99 4.7 5.87 5.5 5.472 1-.498 6.5-8.456 9.5-10.446" stroke="#fff" stroke-width="2" stroke-linecap="round" stroke-linejoin="round"/></svg>