<svg width="149" height="150" viewBox="0 0 149 150" fill="none" xmlns="http://www.w3.org/2000/svg"><path d="M133.002 42.637c0 12.087-15.85 17.907-28 17.907s-16-5.82-16-17.907c0-12.088 15.35-22.384 27.5-22.384s16.5 10.296 16.5 22.384z" fill="#43D48A"/><path d="M112.746 33.75c15.968 21.674 30.132 40.393 11.069 60.384-10.025 10.513-36.716 28.825-59.068 29.927-18.932 5.446-32.953-12.778-42.125-21.603-19.345-18.613-1.3-43.368 17.763-63.36 19.063-19.99 53.016-23.961 72.361-5.348z" fill="#F5F5F5"/><path d="M34.894 101.675c4.82 2.03 4.912 7.622 4.355 10.165l-1.477 2.337c-1.171 1.329-4.563 3.81-8.757 3.098-5.243-.889-7.694-8.032-6.438-11.331 1.256-3.299 6.292-6.806 12.317-4.269zM15 77.5c8.667-.834 26.5-2 28.5 0 2.5 2.5 5 17.5 2.5 18-2 .4 3.167.833 6 1 1.167 1.333 2.8 4.5 0 6.5s-6.833 2.167-8.5 2m-21-30.5c7-9.167 22.7-27.8 29.5-29 8.5-1.5 16-1.5 15.5 0s5 5.5-2.5 5.5-21.5 22.5-21.5 23.5m19-18c-1.167 9.167-2.8 24.8 0 26M111.64 95.785c-4.85-1.317-7.168-2.699-9.037-3.411-1.495-.57-2.954-2.546-3.496-3.463" stroke="#3D3935" stroke-width="2" stroke-linecap="round" stroke-linejoin="bevel"/><path d="M131.344 85.764c-9.521-3.099-16.287-7.808-30.335-4.647-14.049 3.16-15.74 1.984-25.503.923S63.15 86.378 61.91 89.63c-1.24 3.254 1.256 7.932 6.863 10.07" stroke="#3D3935" stroke-width="2" stroke-linecap="round" stroke-linejoin="bevel"/><path d="M85.717 95.955c4.82 2.03 4.911 7.623 4.355 10.165l-1.477 2.337c-1.172 1.329-4.564 3.81-8.758 3.099-5.243-.89-7.693-8.033-6.438-11.332 1.256-3.298 6.293-6.806 12.318-4.269zM93.42 108.037c7.593 2.539 9.122 3.241 13.322 5.699" stroke="#3D3935" stroke-width="2" stroke-linecap="round" stroke-linejoin="bevel"/><path d="M18 96l24-1" stroke="#3D3935" stroke-width="2" stroke-linecap="round"/><path d="M133.002 42.637c0 12.087-15.85 17.907-28 17.907s-16-5.82-16-17.907c0-12.088 15.35-22.384 27.5-22.384s16.5 10.296 16.5 22.384z" fill="#EF533F"/><path d="M103.055 40.392c1.5 1.99 4.7 5.87 5.5 5.472 1-.498 6.5-8.456 9.5-10.446" stroke="#fff" stroke-width="2" stroke-linecap="round" stroke-linejoin="round"/></svg>