<svg width="122" height="109" viewBox="0 0 122 109" fill="none" xmlns="http://www.w3.org/2000/svg"><path d="M120.002 22.637c0 12.087-15.85 17.907-28 17.907s-16-5.82-16-17.907c0-12.088 15.35-22.384 27.5-22.384s16.5 10.296 16.5 22.384z" fill="#43D48A"/><path d="M113.712 63.579c-8.608 23.195-15.846 43.515-41.562 38.936-13.524-2.408-41.935-13.696-54.559-30.321-14.233-11.807-7.308-31.768-5.208-43.265 4.43-24.248 33.349-22.853 59.065-18.274 25.716 4.579 46.694 28.675 42.264 52.924z" fill="#F5F5F5"/><path d="M60.14 52c-1.607-.474-4.67-2.33-4.061-5.953.762-4.53 4.887-5.047 5.395-5.047.507 0 5.711.582 5.52 6.082" stroke="#3D3935" stroke-width="2" stroke-linecap="round" stroke-linejoin="round"/><path d="M61.5 76.5c-5.667-8.5-17.8-21.6-15-32 3.5-13 10-15 14-15S78 35 77.5 47c-.4 9.6-9.167 17.333-13.5 24" stroke="#3D3935" stroke-width="2" stroke-linecap="round"/><path d="M49.5 72c-11.166 3.5-21.06 10.5 15.34 10.5s20.827-7 6.66-10.5" stroke="#3D3935" stroke-width="2" stroke-linecap="round"/><path d="M120.002 22.637c0 12.087-15.85 17.907-28 17.907s-16-5.82-16-17.907c0-12.088 15.35-22.384 27.5-22.384s16.5 10.296 16.5 22.384z" fill="#EF533F"/><path d="M90.055 20.392c1.5 1.99 4.7 5.87 5.5 5.472 1-.498 6.5-8.456 9.5-10.446" stroke="#fff" stroke-width="2" stroke-linecap="round" stroke-linejoin="round"/></svg>