<svg width="149" height="150" viewBox="0 0 149 150" fill="none" xmlns="http://www.w3.org/2000/svg"><path d="M133.002 42.637c0 12.087-15.85 17.907-28 17.907s-16-5.82-16-17.907c0-12.088 15.35-22.384 27.5-22.384s16.5 10.296 16.5 22.384z" fill="#43D48A"/><path d="M112.746 33.75c15.968 21.674 30.132 40.393 11.069 60.384-10.025 10.513-36.716 28.825-59.068 29.927-18.932 5.446-32.953-12.778-42.125-21.603-19.345-18.613-1.3-43.368 17.763-63.36 19.063-19.99 53.016-23.961 72.361-5.348z" fill="#F5F5F5"/><path d="M93.597 91.032c-2.477-9.734-7.03-27.954-8.972-36.758-.47-2.128-1.496-6.677-1.594-7.452-.503-3.983-24.31 2.455-36.507 4.686 3.257 15.377 10.113 46.511 11.48 48.03 1.366 1.521 19.73-3.176 28.74-5.714" stroke="#3D3935" stroke-width="2" stroke-linecap="round" stroke-linejoin="round"/><path d="M54.698 62.443c-.172-.78-.103-2.486 1.55-3.066 2.066-.726 3.232.877 3.349 1.089.116.212 1.072 2.518-1.268 3.705M59.786 77.357c-.8-.02-2.439-.496-2.605-2.24-.209-2.179 1.626-2.927 1.86-2.99.234-.062 4.259 0 3.135 3.475M66.5 58.437c3.167-.667 10.2-2.2 13-3m-13.5 8c1.667-.5 5.7-1.6 8.5-2m-8.5 9.5c.5 0 15.5-2 17-3.5m-15 8c1 0 7-2.5 6-1.5" stroke="#3D3935" stroke-width="2" stroke-linecap="round" stroke-linejoin="round"/><path d="M133.002 42.637c0 12.087-15.85 17.907-28 17.907s-16-5.82-16-17.907c0-12.088 15.35-22.384 27.5-22.384s16.5 10.296 16.5 22.384z" fill="#EF533F"/><path d="M103.055 40.622c1.5 1.99 4.7 5.87 5.5 5.471 1-.497 6.5-8.456 9.5-10.445" stroke="#fff" stroke-width="2" stroke-linecap="round" stroke-linejoin="round"/></svg>