<svg width="147" height="142" viewBox="0 0 147 142" fill="none" xmlns="http://www.w3.org/2000/svg"><path d="M132.002 38.636c0 12.088-15.85 17.907-28 17.907s-16-5.82-16-17.907 15.35-22.384 27.5-22.384 16.5 10.297 16.5 22.384z" fill="#43D48A"/><path d="M24.433 43.201c17.251-20.667 32.061-38.879 56.015-25.12 12.597 7.235 36.734 28.8 43.124 50.248 9.796 17.092-4.569 35.048-10.957 46.056-13.475 23.219-41.813 11.584-65.766-2.174-23.954-13.759-35.89-45.791-22.416-69.01z" fill="#F5F5F5"/><path d="M61.22 94.752c3.334 1.667 11.7 5 18.5 5 8.5 0 15-2.5 10.5-7 2.5 1.5 10.001-4 3.5-7 6-1.5 7.001-5.5.5-8.5 7.501-2.5 4-9 0-9.5s-4.5-.5-9-1-5-2.5-3.5-5c4.5-7 3-15 2.5-17s-6.5-5.5-5.5 1-6.5 13-10.5 20c-3.2 5.6-8.666 6.667-11 6.5 0-.5-.2-1.5-1-1.5h-6c-.5 0-1.5 1-2 3-.4 1.6-.166 14.667 0 21 .168.834.801 2.4 2 2 1.5-.5 5 0 6 0s2-1 2-4v-17.5" stroke="#3D3935" stroke-width="2" stroke-linecap="round" stroke-linejoin="round"/><path d="M132.002 38.636c0 12.088-15.85 17.907-28 17.907s-16-5.82-16-17.907 15.35-22.384 27.5-22.384 16.5 10.297 16.5 22.384z" fill="#EF533F"/><path d="M102.055 36.622c1.5 1.99 4.7 5.87 5.5 5.471 1-.497 6.5-8.456 9.5-10.446" stroke="#fff" stroke-width="2" stroke-linecap="round" stroke-linejoin="round"/></svg>