<svg width="147" height="142" viewBox="0 0 147 142" fill="none" xmlns="http://www.w3.org/2000/svg"><path d="M132.002 38.636c0 12.088-15.85 17.907-28 17.907s-16-5.82-16-17.907 15.35-22.384 27.5-22.384 16.5 10.297 16.5 22.384z" fill="#43D48A"/><path d="M24.433 43.201c17.251-20.667 32.061-38.879 56.015-25.12 12.597 7.235 36.734 28.8 43.124 50.248 9.796 17.092-4.569 35.048-10.957 46.056-13.475 23.219-41.813 11.584-65.766-2.174-23.954-13.759-35.89-45.791-22.416-69.01z" fill="#F5F5F5"/><path d="M54 99.5v-15c.167-1.5 1.2-4.5 4-4.5h10.5m8.5 0h10.5c1.5.167 4.5 1.1 4.5 3.5v16H72m-14 0h14m0 0v-12m8 4h5.5m-24-34c.4-1.6.167-11.667 0-16.5.333-.833 1.7-2.5 4.5-2.5h15c1.167.167 3.5 1.1 3.5 3.5v15.5h-23z" stroke="#3D3935" stroke-width="2" stroke-linecap="round" stroke-linejoin="round"/><path d="M62.306 57c-3.25 1.308-7.798 4.71 0 7.85 0 4.905 3.412 9.81 7.31 10.791C69.13 79.075 69.13 83 73.03 83c3.12 0 3.899-4.906 3.899-7.359 2.112-.98 6.531-4.415 7.311-10.301 2.437-1.472 6.824-4.416.487-7.85" stroke="#3D3935" stroke-width="2"/><path d="M74.333 45v7M71 48.5h6" stroke="#3D3935" stroke-width="2" stroke-linecap="round" stroke-linejoin="round"/><path d="M132.002 38.636c0 12.088-15.85 17.907-28 17.907s-16-5.82-16-17.907 15.35-22.384 27.5-22.384 16.5 10.297 16.5 22.384z" fill="#EF533F"/><path d="M102.055 36.622c1.5 1.99 4.7 5.87 5.5 5.471 1-.497 6.5-8.456 9.5-10.446" stroke="#fff" stroke-width="2" stroke-linecap="round" stroke-linejoin="round"/></svg>