<svg width="122" height="109" viewBox="0 0 122 109" fill="none" xmlns="http://www.w3.org/2000/svg"><path d="M120.002 22.637c0 12.087-15.85 17.907-28 17.907s-16-5.82-16-17.907c0-12.088 15.35-22.384 27.5-22.384s16.5 10.296 16.5 22.384z" fill="#43D48A"/><path d="M113.712 63.579c-8.608 23.195-15.846 43.515-41.562 38.936-13.524-2.408-41.935-13.696-54.559-30.321-14.233-11.807-7.308-31.768-5.208-43.265 4.43-24.248 33.349-22.853 59.065-18.274 25.716 4.579 46.694 28.675 42.264 52.924z" fill="#F5F5F5"/><path d="M35 80c1.744-.048 3.69-.098 5.778-.148M87 80c-.594-.175-1.999-.304-4-.396m-42.222.248c0-2.284.355-6.852 1.778-6.852h39.11c.89.757 2.4 3.138 1.334 6.604m-42.222.248C54.5 79.524 74.339 79.21 83 79.604M47 73V38.333M76.995 73c-.12-8.948-.279-25.68-.149-33.712M47 38.333V29c10.148.593 30.353 2.667 29.995 6.222-.07.692-.118 2.125-.149 4.066M47 38.333c9.004-.252 27.578-.415 29.846.955" stroke="#3D3935" stroke-width="2" stroke-linecap="round" stroke-linejoin="round"/><path d="M76 50.551c-9.37-1.048-28.286-2.784-29-1.347m0 12.572c8.774.598 26.859 1.616 29 .897M56.37 29c.445 14.218 1.07 42.922 0 44m10.707 0c-.744-13.918-1.785-41.845 0-42.204" stroke="#3D3935" stroke-width="2" stroke-linecap="round" stroke-linejoin="round"/><path d="M120.002 22.637c0 12.087-15.85 17.907-28 17.907s-16-5.82-16-17.907c0-12.088 15.35-22.384 27.5-22.384s16.5 10.296 16.5 22.384z" fill="#EF533F"/><path d="M90.055 20.622c1.5 1.99 4.7 5.87 5.5 5.472 1-.498 6.5-8.456 9.5-10.446" stroke="#fff" stroke-width="2" stroke-linecap="round" stroke-linejoin="round"/></svg>