<svg width="147" height="142" viewBox="0 0 147 142" fill="none" xmlns="http://www.w3.org/2000/svg"><path d="M132.002 38.636c0 12.088-15.85 17.907-28 17.907s-16-5.82-16-17.907 15.35-22.384 27.5-22.384 16.5 10.297 16.5 22.384z" fill="#43D48A"/><path d="M24.433 43.201c17.251-20.667 32.061-38.879 56.015-25.12 12.597 7.235 36.734 28.8 43.124 50.248 9.796 17.092-4.569 35.048-10.957 46.056-13.475 23.219-41.813 11.584-65.766-2.174-23.954-13.759-35.89-45.791-22.416-69.01z" fill="#F5F5F5"/><path d="M87 55.23c-2.609 1.461-11.522 9.943-15.652 14-4.174-3.165-11.304-6.39-14.348-7.608M71.732 48.23v3.883M50 70.227h2.634m19.098 12.617c.22-1.617 1.58-4.788 5.268-4.529 4.61.323 5.927 3.558 5.927 6.147 0 2.588-11.195 11.97-11.195 13.91 0 1.553 7.024.647 10.536 0M97.085 78.64l-9.22 12.94 13.172.648M97.415 81.55l-.33 15.528M104 64.73l-4.61 7.764-6.256-6.793" stroke="#3D3935" stroke-width="2" stroke-linecap="round" stroke-linejoin="round"/><path d="M64.457 97.23c-8.332-2.415-24.205-11.858-21.047-30.305 3.946-23.06 25.322-25.694 27.953-25.694 2.63 0 29.597 2.964 28.61 30.964" stroke="#3D3935" stroke-width="2" stroke-linecap="round" stroke-linejoin="round"/><path d="M132.002 38.636c0 12.088-15.85 17.907-28 17.907s-16-5.82-16-17.907 15.35-22.384 27.5-22.384 16.5 10.297 16.5 22.384z" fill="#EF533F"/><path d="M102.055 36.622c1.5 1.99 4.7 5.87 5.5 5.471 1-.497 6.5-8.456 9.5-10.446" stroke="#fff" stroke-width="2" stroke-linecap="round" stroke-linejoin="round"/></svg>